<svg width="1400" height="160" viewBox="3.25 0 1250 160"
    xmlns="http://www.w3.org/2000/svg">
    <g id="svgGroup" stroke-linecap="round" fill-rule="evenodd" font-size="9pt" stroke="#000"
        stroke-width="0.25mm" fill="#000" style="stroke:#000;stroke-width:0.25mm;fill:#000">
        <path
            transform="translate(200, 0)"
            d="M 317.383 31.25 L 367.383 31.25 L 361.133 43.75 L 317.383 43.75 Q 309.57 43.75 304.102 49.219 A 18.055 18.055 0 0 0 298.634 62.256 A 22.165 22.165 0 0 0 298.633 62.5 Q 298.633 70.313 304.102 75.781 A 18.055 18.055 0 0 0 317.139 81.249 A 22.165 22.165 0 0 0 317.383 81.25 L 349.316 81.25 L 342.383 68.75 L 317.383 68.75 L 317.383 56.25 L 348.633 56.25 L 386.133 125 L 373.633 125 L 356.25 93.75 L 317.383 93.75 A 30.093 30.093 0 0 1 295.55 84.902 A 36.07 36.07 0 0 1 295.264 84.619 A 30.084 30.084 0 0 1 286.135 62.905 A 36.696 36.696 0 0 1 286.133 62.5 A 30.093 30.093 0 0 1 294.981 40.667 A 36.07 36.07 0 0 1 295.264 40.381 A 30.084 30.084 0 0 1 316.978 31.252 A 36.696 36.696 0 0 1 317.383 31.25 Z M 436.523 93.75 L 399.023 50 L 399.023 118.75 L 386.523 118.75 L 386.523 31.25 L 399.023 31.25 L 436.523 75 L 436.523 0 L 449.023 0 L 449.023 93.75 L 436.523 93.75 Z M 748.145 81.25 L 829.395 81.25 L 829.395 93.75 L 735.645 93.75 L 735.645 75 Q 735.645 67.188 741.113 61.719 A 18.055 18.055 0 0 1 754.151 56.251 A 22.165 22.165 0 0 1 754.395 56.25 L 779.395 56.25 A 6.341 6.341 0 0 0 781.962 55.74 A 6.097 6.097 0 0 0 783.838 54.443 A 6.027 6.027 0 0 0 785.644 50.082 A 7.638 7.638 0 0 0 785.645 50 A 6.341 6.341 0 0 0 785.135 47.433 A 6.097 6.097 0 0 0 783.838 45.557 A 6.027 6.027 0 0 0 779.477 43.75 A 7.638 7.638 0 0 0 779.395 43.75 L 741.895 43.75 L 741.895 31.25 L 779.395 31.25 Q 787.207 31.25 792.676 36.719 A 18.055 18.055 0 0 1 798.143 49.756 A 22.165 22.165 0 0 1 798.145 50 Q 798.145 57.813 792.676 63.281 A 18.055 18.055 0 0 1 779.638 68.749 A 22.165 22.165 0 0 1 779.395 68.75 L 754.395 68.75 A 6.341 6.341 0 0 0 751.827 69.26 A 6.097 6.097 0 0 0 749.951 70.557 A 6.027 6.027 0 0 0 748.145 74.918 A 7.638 7.638 0 0 0 748.145 75 L 748.145 81.25 Z M 929.395 81.25 L 1010.645 81.25 L 1010.645 93.75 L 916.895 93.75 L 916.895 75 Q 916.895 67.188 922.363 61.719 A 18.055 18.055 0 0 1 935.401 56.251 A 22.165 22.165 0 0 1 935.645 56.25 L 960.645 56.25 A 6.341 6.341 0 0 0 963.212 55.74 A 6.097 6.097 0 0 0 965.088 54.443 A 6.027 6.027 0 0 0 966.894 50.082 A 7.638 7.638 0 0 0 966.895 50 A 6.341 6.341 0 0 0 966.385 47.433 A 6.097 6.097 0 0 0 965.088 45.557 A 6.027 6.027 0 0 0 960.727 43.75 A 7.638 7.638 0 0 0 960.645 43.75 L 923.145 43.75 L 923.145 31.25 L 960.645 31.25 Q 968.457 31.25 973.926 36.719 A 18.055 18.055 0 0 1 979.393 49.756 A 22.165 22.165 0 0 1 979.395 50 Q 979.395 57.813 973.926 63.281 A 18.055 18.055 0 0 1 960.888 68.749 A 22.165 22.165 0 0 1 960.645 68.75 L 935.645 68.75 A 6.341 6.341 0 0 0 933.077 69.26 A 6.097 6.097 0 0 0 931.201 70.557 A 6.027 6.027 0 0 0 929.395 74.918 A 7.638 7.638 0 0 0 929.395 75 L 929.395 81.25 Z M 1023.145 31.25 L 1116.895 31.25 L 1116.895 43.75 L 1035.645 43.75 L 1035.645 50 A 6.341 6.341 0 0 0 1036.154 52.567 A 6.097 6.097 0 0 0 1037.451 54.443 A 6.027 6.027 0 0 0 1041.812 56.25 A 7.638 7.638 0 0 0 1041.895 56.25 L 1066.895 56.25 Q 1074.707 56.25 1080.176 61.719 A 18.055 18.055 0 0 1 1085.643 74.756 A 22.165 22.165 0 0 1 1085.645 75 Q 1085.645 82.813 1080.176 88.281 A 18.055 18.055 0 0 1 1067.138 93.749 A 22.165 22.165 0 0 1 1066.895 93.75 L 1029.395 93.75 L 1029.395 81.25 L 1066.895 81.25 A 6.341 6.341 0 0 0 1069.462 80.74 A 6.097 6.097 0 0 0 1071.338 79.443 A 6.027 6.027 0 0 0 1073.144 75.082 A 7.638 7.638 0 0 0 1073.145 75 A 6.341 6.341 0 0 0 1072.635 72.433 A 6.097 6.097 0 0 0 1071.338 70.557 A 6.027 6.027 0 0 0 1066.977 68.75 A 7.638 7.638 0 0 0 1066.895 68.75 L 1041.895 68.75 Q 1034.082 68.75 1028.613 63.281 A 18.055 18.055 0 0 1 1023.146 50.244 A 22.165 22.165 0 0 1 1023.145 50 L 1023.145 31.25 Z M 241.211 93.75 L 166.211 93.75 L 166.211 81.25 L 241.211 81.25 A 6.341 6.341 0 0 0 243.778 80.74 A 6.097 6.097 0 0 0 245.654 79.443 A 6.027 6.027 0 0 0 247.46 75.082 A 7.638 7.638 0 0 0 247.461 75 A 6.341 6.341 0 0 0 246.951 72.433 A 6.097 6.097 0 0 0 245.654 70.557 A 6.027 6.027 0 0 0 241.293 68.75 A 7.638 7.638 0 0 0 241.211 68.75 L 216.211 68.75 Q 208.398 68.75 202.93 63.281 A 18.055 18.055 0 0 1 197.462 50.244 A 22.165 22.165 0 0 1 197.461 50 Q 197.461 42.188 202.93 36.719 A 18.055 18.055 0 0 1 215.967 31.251 A 22.165 22.165 0 0 1 216.211 31.25 L 253.711 31.25 L 253.711 43.75 L 216.211 43.75 A 6.341 6.341 0 0 0 213.644 44.26 A 6.097 6.097 0 0 0 211.768 45.557 A 6.027 6.027 0 0 0 209.961 49.918 A 7.638 7.638 0 0 0 209.961 50 A 6.341 6.341 0 0 0 210.471 52.567 A 6.097 6.097 0 0 0 211.768 54.443 A 6.027 6.027 0 0 0 216.129 56.25 A 7.638 7.638 0 0 0 216.211 56.25 L 241.211 56.25 Q 249.023 56.25 254.492 61.719 A 18.055 18.055 0 0 1 259.96 74.756 A 22.165 22.165 0 0 1 259.961 75 Q 259.961 82.813 254.492 88.281 A 18.055 18.055 0 0 1 241.455 93.749 A 22.165 22.165 0 0 1 241.211 93.75 Z M 537.891 43.75 L 537.891 93.75 L 525.391 93.75 L 525.391 31.25 L 569.141 31.25 Q 576.953 31.25 582.422 36.719 A 18.055 18.055 0 0 1 587.889 49.756 A 22.165 22.165 0 0 1 587.891 50 Q 587.891 57.813 582.422 63.281 A 18.055 18.055 0 0 1 569.384 68.749 A 22.165 22.165 0 0 1 569.141 68.75 L 566.406 68.75 L 594.141 118.75 L 581.641 118.75 L 547.266 56.25 L 569.141 56.25 A 6.341 6.341 0 0 0 571.708 55.74 A 6.097 6.097 0 0 0 573.584 54.443 A 6.027 6.027 0 0 0 575.39 50.082 A 7.638 7.638 0 0 0 575.391 50 A 6.341 6.341 0 0 0 574.881 47.433 A 6.097 6.097 0 0 0 573.584 45.557 A 6.027 6.027 0 0 0 569.223 43.75 A 7.638 7.638 0 0 0 569.141 43.75 L 537.891 43.75 Z M 82.227 31.25 L 144.727 31.25 L 144.727 43.75 L 94.727 43.75 L 94.727 81.25 L 144.727 81.25 L 144.727 93.75 L 82.227 93.75 L 82.227 31.25 Z M 610.645 93.75 L 634.082 62.5 L 610.645 31.25 L 626.27 31.25 L 641.895 52.051 L 657.52 31.25 L 673.145 31.25 L 649.707 62.5 L 673.145 93.75 L 657.52 93.75 L 641.895 72.949 L 626.27 93.75 L 610.645 93.75 Z M 518.457 43.75 L 493.457 43.75 L 493.457 93.75 L 480.957 93.75 L 480.957 43.75 L 455.957 43.75 L 455.957 31.25 L 518.457 31.25 L 518.457 43.75 Z M 43.75 93.75 L 0 93.75 L 0 31.25 L 43.75 31.25 A 30.093 30.093 0 0 1 65.583 40.098 A 36.07 36.07 0 0 1 65.869 40.381 A 30.084 30.084 0 0 1 74.998 62.095 A 36.696 36.696 0 0 1 75 62.5 A 30.093 30.093 0 0 1 66.152 84.333 A 36.07 36.07 0 0 1 65.869 84.619 A 30.084 30.084 0 0 1 44.155 93.748 A 36.696 36.696 0 0 1 43.75 93.75 Z M 851.312 84.902 A 30.093 30.093 0 0 0 873.145 93.75 A 36.696 36.696 0 0 0 873.549 93.748 A 30.084 30.084 0 0 0 895.264 84.619 A 36.07 36.07 0 0 0 895.547 84.333 A 30.093 30.093 0 0 0 904.395 62.5 A 36.696 36.696 0 0 0 904.392 62.095 A 30.084 30.084 0 0 0 895.264 40.381 A 36.07 36.07 0 0 0 894.977 40.098 A 30.093 30.093 0 0 0 873.145 31.25 A 36.696 36.696 0 0 0 872.74 31.252 A 30.084 30.084 0 0 0 851.025 40.381 A 36.07 36.07 0 0 0 850.742 40.667 A 30.093 30.093 0 0 0 841.895 62.5 A 36.696 36.696 0 0 0 841.897 62.905 A 30.084 30.084 0 0 0 851.025 84.619 A 36.07 36.07 0 0 0 851.312 84.902 Z M 182.227 56.25 L 182.227 68.75 L 110.352 68.75 L 110.352 56.25 L 182.227 56.25 Z M 12.5 43.75 L 12.5 81.25 L 43.75 81.25 Q 51.563 81.25 57.031 75.781 A 18.055 18.055 0 0 0 62.499 62.744 A 22.165 22.165 0 0 0 62.5 62.5 Q 62.5 54.688 57.031 49.219 A 18.055 18.055 0 0 0 43.994 43.751 A 22.165 22.165 0 0 0 43.75 43.75 L 12.5 43.75 Z M 278.906 31.25 L 278.906 93.75 L 266.406 93.75 L 266.406 31.25 L 278.906 31.25 Z M 606.836 31.25 L 606.836 93.75 L 594.336 93.75 L 594.336 31.25 L 606.836 31.25 Z M 873.145 81.25 Q 880.957 81.25 886.426 75.781 A 18.055 18.055 0 0 0 891.893 62.744 A 22.165 22.165 0 0 0 891.895 62.5 Q 891.895 54.688 886.426 49.219 A 18.055 18.055 0 0 0 873.388 43.751 A 22.165 22.165 0 0 0 873.145 43.75 Q 865.332 43.75 859.863 49.219 A 18.055 18.055 0 0 0 854.396 62.256 A 22.165 22.165 0 0 0 854.395 62.5 Q 854.395 70.313 859.863 75.781 A 18.055 18.055 0 0 0 872.901 81.249 A 22.165 22.165 0 0 0 873.145 81.25 Z"
            vector-effect="non-scaling-stroke" />
    </g>
</svg>